<?xml version="1.0" encoding="UTF-8"?>
<svg xmlns="http://www.w3.org/2000/svg" xmlns:xlink="http://www.w3.org/1999/xlink" width="50px" height="50px" viewBox="0 0 50 50" version="1.1">
<g id="surface1">
<path style=" stroke:none;fill-rule:nonzero;fill:rgb(60.784314%,24.313725%,97.254902%);fill-opacity:1;" d="M 16.203125 38.808594 C 16.203125 39.003906 15.976562 39.160156 15.695312 39.160156 C 15.371094 39.1875 15.148438 39.03125 15.148438 38.808594 C 15.148438 38.613281 15.371094 38.457031 15.65625 38.457031 C 15.949219 38.425781 16.203125 38.585938 16.203125 38.808594 Z M 13.164062 38.367188 C 13.097656 38.5625 13.292969 38.789062 13.585938 38.847656 C 13.839844 38.945312 14.132812 38.847656 14.191406 38.652344 C 14.25 38.457031 14.0625 38.230469 13.769531 38.144531 C 13.515625 38.078125 13.234375 38.171875 13.164062 38.367188 Z M 17.480469 38.203125 C 17.195312 38.273438 17 38.457031 17.03125 38.679688 C 17.0625 38.875 17.3125 39.003906 17.609375 38.9375 C 17.890625 38.867188 18.085938 38.679688 18.054688 38.484375 C 18.027344 38.300781 17.765625 38.171875 17.480469 38.203125 Z M 23.90625 0.78125 C 10.359375 0.78125 0 11.0625 0 24.609375 C 0 35.4375 6.816406 44.707031 16.554688 47.96875 C 17.804688 48.195312 18.242188 47.421875 18.242188 46.789062 C 18.242188 46.179688 18.210938 42.84375 18.210938 40.789062 C 18.210938 40.789062 11.375 42.257812 9.941406 37.882812 C 9.941406 37.882812 8.828125 35.039062 7.226562 34.304688 C 7.226562 34.304688 4.992188 32.773438 7.382812 32.804688 C 7.382812 32.804688 9.8125 33 11.152344 35.320312 C 13.289062 39.09375 16.875 38.007812 18.273438 37.363281 C 18.496094 35.800781 19.132812 34.714844 19.835938 34.070312 C 14.375 33.46875 8.867188 32.675781 8.867188 23.28125 C 8.867188 20.59375 9.609375 19.246094 11.171875 17.527344 C 10.917969 16.894531 10.089844 14.277344 11.425781 10.898438 C 13.46875 10.261719 18.164062 13.535156 18.164062 13.535156 C 20.117188 12.988281 22.21875 12.703125 24.296875 12.703125 C 26.378906 12.703125 28.476562 12.988281 30.429688 13.535156 C 30.429688 13.535156 35.128906 10.253906 37.167969 10.898438 C 38.507812 14.285156 37.675781 16.894531 37.421875 17.527344 C 38.984375 19.257812 39.941406 20.605469 39.941406 23.28125 C 39.941406 32.703125 34.191406 33.457031 28.730469 34.070312 C 29.628906 34.84375 30.390625 36.308594 30.390625 38.601562 C 30.390625 41.894531 30.363281 45.964844 30.363281 46.765625 C 30.363281 47.402344 30.8125 48.171875 32.050781 47.949219 C 41.816406 44.707031 48.4375 35.4375 48.4375 24.609375 C 48.4375 11.0625 37.453125 0.78125 23.90625 0.78125 Z M 9.492188 34.460938 C 9.367188 34.5625 9.394531 34.785156 9.5625 34.96875 C 9.71875 35.125 9.941406 35.195312 10.070312 35.070312 C 10.195312 34.96875 10.164062 34.746094 10 34.5625 C 9.84375 34.402344 9.617188 34.335938 9.492188 34.460938 Z M 8.4375 33.671875 C 8.367188 33.796875 8.46875 33.953125 8.664062 34.050781 C 8.820312 34.148438 9.015625 34.121094 9.082031 33.984375 C 9.148438 33.855469 9.054688 33.703125 8.859375 33.601562 C 8.664062 33.542969 8.507812 33.574219 8.4375 33.671875 Z M 11.601562 37.148438 C 11.445312 37.273438 11.503906 37.570312 11.726562 37.753906 C 11.953125 37.976562 12.238281 38.007812 12.363281 37.851562 C 12.492188 37.722656 12.433594 37.429688 12.238281 37.246094 C 12.023438 37.023438 11.726562 36.992188 11.601562 37.148438 Z M 10.488281 35.710938 C 10.332031 35.8125 10.332031 36.0625 10.488281 36.289062 C 10.644531 36.515625 10.90625 36.609375 11.035156 36.515625 C 11.191406 36.386719 11.191406 36.132812 11.035156 35.90625 C 10.898438 35.683594 10.644531 35.585938 10.488281 35.710938 Z M 10.488281 35.710938 "/>
</g>
</svg>
