<?xml version="1.0" encoding="UTF-8"?>
<svg xmlns="http://www.w3.org/2000/svg" xmlns:xlink="http://www.w3.org/1999/xlink" width="50px" height="50px" viewBox="0 0 50 50" version="1.1">
<g id="surface1">
<path style=" stroke:none;fill-rule:nonzero;fill:rgb(60.784314%,24.313725%,97.254902%);fill-opacity:1;" d="M 40.839844 17.304688 C 40.3125 17.128906 39.785156 16.960938 39.257812 16.804688 C 39.34375 16.445312 39.421875 16.085938 39.5 15.722656 C 40.703125 9.902344 39.914062 5.226562 37.246094 3.683594 C 34.679688 2.207031 30.488281 3.742188 26.25 7.429688 C 25.828125 7.792969 25.417969 8.171875 25.027344 8.554688 C 24.765625 8.300781 24.492188 8.046875 24.21875 7.800781 C 19.773438 3.855469 15.320312 2.195312 12.65625 3.75 C 10.097656 5.234375 9.335938 9.636719 10.410156 15.148438 C 10.515625 15.691406 10.632812 16.230469 10.769531 16.777344 C 10.144531 16.953125 9.53125 17.148438 8.953125 17.351562 C 3.738281 19.160156 0 22.011719 0 24.960938 C 0 28.007812 3.984375 31.066406 9.40625 32.921875 C 9.84375 33.066406 10.28125 33.210938 10.734375 33.339844 C 10.585938 33.925781 10.460938 34.5 10.34375 35.097656 C 9.316406 40.515625 10.117188 44.8125 12.675781 46.289062 C 15.3125 47.8125 19.746094 46.25 24.0625 42.46875 C 24.402344 42.167969 24.746094 41.855469 25.085938 41.523438 C 25.515625 41.945312 25.964844 42.34375 26.414062 42.734375 C 30.59375 46.328125 34.726562 47.78125 37.273438 46.308594 C 39.914062 44.785156 40.773438 40.164062 39.65625 34.539062 C 39.570312 34.109375 39.472656 33.671875 39.367188 33.222656 C 39.675781 33.132812 39.980469 33.039062 40.28125 32.9375 C 45.917969 31.074219 50 28.054688 50 24.960938 C 50 22 46.152344 19.132812 40.839844 17.304688 Z M 27.625 9.015625 C 31.257812 5.851562 34.648438 4.609375 36.191406 5.5 C 37.839844 6.445312 38.476562 10.273438 37.441406 15.300781 C 37.375 15.632812 37.304688 15.957031 37.21875 16.28125 C 35.046875 15.789062 32.851562 15.4375 30.644531 15.242188 C 29.375 13.429688 27.988281 11.6875 26.484375 10.058594 C 26.863281 9.695312 27.234375 9.355469 27.625 9.015625 Z M 16.328125 30.03125 C 16.828125 30.878906 17.335938 31.726562 17.871094 32.558594 C 16.347656 32.390625 14.835938 32.148438 13.339844 31.824219 C 13.769531 30.421875 14.304688 28.964844 14.929688 27.480469 C 15.382812 28.339844 15.839844 29.1875 16.328125 30.03125 Z M 13.367188 18.28125 C 14.773438 17.96875 16.269531 17.714844 17.820312 17.519531 C 17.304688 18.328125 16.796875 19.160156 16.316406 20 C 15.839844 20.828125 15.371094 21.679688 14.929688 22.539062 C 14.316406 21.082031 13.796875 19.65625 13.367188 18.28125 Z M 16.046875 25.011719 C 16.6875 23.664062 17.390625 22.34375 18.132812 21.046875 C 18.875 19.746094 19.679688 18.488281 20.515625 17.246094 C 21.984375 17.140625 23.476562 17.082031 25 17.082031 C 26.523438 17.082031 28.027344 17.140625 29.480469 17.246094 C 30.3125 18.476562 31.101562 19.738281 31.855469 21.023438 C 32.609375 22.3125 33.3125 23.632812 33.976562 24.96875 C 33.320312 26.320312 32.617188 27.648438 31.863281 28.953125 C 31.121094 30.253906 30.332031 31.515625 29.5 32.765625 C 28.046875 32.871094 26.53125 32.921875 25 32.921875 C 23.464844 32.921875 21.980469 32.871094 20.546875 32.785156 C 19.695312 31.542969 18.894531 30.273438 18.144531 28.976562 C 17.390625 27.675781 16.699219 26.359375 16.046875 25.011719 Z M 33.679688 30.007812 C 34.179688 29.148438 34.648438 28.28125 35.109375 27.402344 C 35.734375 28.820312 36.28125 30.253906 36.757812 31.730469 C 35.242188 32.070312 33.710938 32.335938 32.167969 32.507812 C 32.695312 31.691406 33.195312 30.851562 33.679688 30.007812 Z M 35.085938 22.539062 C 34.628906 21.679688 34.160156 20.820312 33.671875 19.980469 C 33.195312 19.152344 32.695312 18.328125 32.175781 17.519531 C 33.75 17.714844 35.253906 17.980469 36.660156 18.300781 C 36.210938 19.746094 35.683594 21.152344 35.085938 22.539062 Z M 25.019531 11.554688 C 26.046875 12.664062 27.011719 13.835938 27.910156 15.046875 C 25.976562 14.960938 24.035156 14.960938 22.101562 15.046875 C 23.058594 13.789062 24.042969 12.617188 25.019531 11.554688 Z M 13.691406 5.566406 C 15.332031 4.609375 18.976562 5.976562 22.8125 9.375 C 23.054688 9.589844 23.300781 9.824219 23.554688 10.058594 C 22.039062 11.6875 20.644531 13.429688 19.367188 15.242188 C 17.15625 15.4375 14.96875 15.78125 12.800781 16.257812 C 12.675781 15.761719 12.566406 15.253906 12.460938 14.746094 C 11.542969 10.019531 12.148438 6.453125 13.691406 5.566406 Z M 11.296875 31.308594 C 10.886719 31.191406 10.488281 31.066406 10.085938 30.929688 C 8.007812 30.273438 5.644531 29.238281 3.933594 27.882812 C 2.949219 27.199219 2.285156 26.144531 2.097656 24.960938 C 2.097656 23.175781 5.183594 20.890625 9.636719 19.335938 C 10.195312 19.140625 10.761719 18.964844 11.328125 18.800781 C 11.992188 20.917969 12.792969 23 13.71875 25.011719 C 12.78125 27.050781 11.972656 29.160156 11.296875 31.308594 Z M 22.6875 40.878906 C 21.074219 42.355469 19.210938 43.527344 17.175781 44.328125 C 16.09375 44.84375 14.84375 44.894531 13.730469 44.453125 C 12.175781 43.554688 11.53125 40.109375 12.410156 35.46875 C 12.519531 34.921875 12.636719 34.375 12.773438 33.839844 C 14.960938 34.308594 17.167969 34.628906 19.402344 34.796875 C 20.691406 36.621094 22.109375 38.371094 23.621094 40.011719 C 23.3125 40.3125 22.996094 40.605469 22.6875 40.878906 Z M 25.078125 38.507812 C 24.082031 37.429688 23.085938 36.242188 22.117188 34.960938 C 23.054688 35 24.023438 35.019531 25 35.019531 C 26.003906 35.019531 26.992188 35 27.96875 34.953125 C 27.070312 36.191406 26.101562 37.375 25.078125 38.507812 Z M 37.839844 41.4375 C 37.753906 42.625 37.167969 43.742188 36.230469 44.492188 C 34.679688 45.390625 31.367188 44.21875 27.792969 41.152344 C 27.382812 40.800781 26.972656 40.421875 26.550781 40.03125 C 28.046875 38.378906 29.421875 36.632812 30.671875 34.796875 C 32.910156 34.609375 35.136719 34.265625 37.332031 33.769531 C 37.429688 34.171875 37.519531 34.570312 37.597656 34.960938 C 38.074219 37.070312 38.152344 39.265625 37.839844 41.4375 Z M 39.617188 30.9375 C 39.34375 31.023438 39.070312 31.113281 38.789062 31.191406 C 38.105469 29.0625 37.265625 26.984375 36.296875 24.960938 C 37.234375 22.96875 38.027344 20.917969 38.691406 18.820312 C 39.199219 18.964844 39.6875 19.121094 40.15625 19.277344 C 44.707031 20.839844 47.898438 23.164062 47.898438 24.941406 C 47.898438 26.855469 44.492188 29.328125 39.617188 30.9375 Z M 25 29.472656 C 27.46875 29.472656 29.472656 27.46875 29.472656 25 C 29.472656 22.53125 27.46875 20.527344 25 20.527344 C 22.527344 20.527344 20.527344 22.53125 20.527344 25 C 20.527344 27.46875 22.527344 29.472656 25 29.472656 Z M 25 29.472656 "/>
</g>
</svg>
